<svg id="Layer_1" data-name="Layer 1" xmlns="http://www.w3.org/2000/svg" viewBox="0 0 200 200"><defs><style>.cls-1{fill:none;}</style></defs><title>gc-icon</title><rect class="cls-1" width="200" height="200" transform="translate(200 200) rotate(-180)"/><path d="M4.75,106.16l83.57,83.57A15.87,15.87,0,0,0,100,194.48a15.16,15.16,0,0,0,11.55-4.75l83.57-83.57A16,16,0,0,0,200,94.48a15.79,15.79,0,0,0-4.88-11.55L185.5,73.3a16.12,16.12,0,0,0-23.11,0l-37.74,37.61V20.54a13.68,13.68,0,0,0-4.82-10.85,17.13,17.13,0,0,0-11.61-4.17H91.78A17.13,17.13,0,0,0,80.17,9.69a13.68,13.68,0,0,0-4.82,10.85v90.37L37.61,73.3a15.26,15.26,0,0,0-11.55-4.88A15.93,15.93,0,0,0,14.38,73.3L4.75,82.92a16.59,16.59,0,0,0,0,23.24Z"/><rect class="cls-1" x="-0.29" width="200" height="200"/></svg>