<svg id="Layer_1" data-name="Layer 1" xmlns="http://www.w3.org/2000/svg" viewBox="0 0 200 200"><defs><style>.cls-1{fill:none;}</style></defs><title>gc-icon</title><rect class="cls-1" width="200" height="200" transform="translate(200.01 200) rotate(-180)"/><rect class="cls-1" width="200" height="200" transform="translate(200 200) rotate(-180)"/><path d="M186.59,49.8A99.54,99.54,0,0,0,150.2,13.41,97.82,97.82,0,0,0,100,0,97.82,97.82,0,0,0,49.81,13.41,99.64,99.64,0,0,0,13.41,49.8,97.88,97.88,0,0,0,0,100a97.88,97.88,0,0,0,13.41,50.2,99.49,99.49,0,0,0,36.4,36.39A97.82,97.82,0,0,0,100,200a97.85,97.85,0,0,0,50.2-13.41,99.54,99.54,0,0,0,36.39-36.39A97.88,97.88,0,0,0,200,100,97.85,97.85,0,0,0,186.59,49.8Zm-25.26,85.75a70.66,70.66,0,0,1-25.78,25.78,69.2,69.2,0,0,1-35.55,9.5,69.26,69.26,0,0,1-35.55-9.5,70.66,70.66,0,0,1-25.78-25.78A69.3,69.3,0,0,1,29.17,100a69.3,69.3,0,0,1,9.5-35.55A70.74,70.74,0,0,1,64.45,38.67,69.2,69.2,0,0,1,100,29.17a69.2,69.2,0,0,1,35.55,9.5,70.66,70.66,0,0,1,25.78,25.78,69.2,69.2,0,0,1,9.5,35.55A69.2,69.2,0,0,1,161.33,135.55Z"/><path d="M112.5,50h-8.33A4,4,0,0,0,100,54.17V100H70.84a4,4,0,0,0-4.17,4.17v8.33a4,4,0,0,0,4.17,4.16H112.5a4,4,0,0,0,4.17-4.16V54.17A4,4,0,0,0,112.5,50Z"/></svg>