<svg id="Layer_1" data-name="Layer 1" xmlns="http://www.w3.org/2000/svg" viewBox="0 0 200 200"><defs><style>.cls-1{fill:none;}</style></defs><title>gc-icon</title><rect class="cls-1" width="200" height="200" transform="translate(200 200) rotate(-180)"/><path d="M140.06,99.76,195.9,43.92A13.56,13.56,0,0,0,200,34,13.56,13.56,0,0,0,195.9,24L176,4.11a14.14,14.14,0,0,0-19.91,0L100.29,60,100,59.7l-.29.29L43.91,4.11A13.56,13.56,0,0,0,34,0a13.56,13.56,0,0,0-10,4.1L4.1,24A13.56,13.56,0,0,0,0,34a13.56,13.56,0,0,0,4.1,10L59.94,99.76,4.1,155.6a14.14,14.14,0,0,0,0,19.91L24,195.41a13.56,13.56,0,0,0,10,4.1,13.56,13.56,0,0,0,9.95-4.1l55.8-55.88.29.3.29-.3,55.8,55.88a14.14,14.14,0,0,0,19.91,0l19.9-19.9a14.14,14.14,0,0,0,0-19.91Z"/></svg>