<svg id="Layer_1" data-name="Layer 1" xmlns="http://www.w3.org/2000/svg" xmlns:xlink="http://www.w3.org/1999/xlink" viewBox="0 0 200 200"><defs><style>.cls-1{fill:none;}.cls-2{fill:#010101;}.cls-3{clip-path:url(#clip-path);}</style><clipPath id="clip-path"><rect class="cls-1" x="236.14" width="93.67" height="200"/></clipPath></defs><title>gc-icon</title><rect class="cls-1" width="200" height="200" transform="translate(200 200) rotate(-180)"/><path class="cls-2" d="M191.85,27.35h0a27.8,27.8,0,0,0-39.32,0L66.77,113.11,47.46,93.8a27.8,27.8,0,0,0-39.32,0h0a27.82,27.82,0,0,0,0,39.32l37.29,37.29A21.9,21.9,0,0,0,47,172.17h0a28,28,0,0,0,39.48,0h0c.56-.57,1.09-1.16,1.61-1.76L191.85,66.68a27.81,27.81,0,0,0,0-39.33Z"/><g class="cls-3"><g id="surface1"><path d="M236.14,0a66.67,66.67,0,1,0,66.67,66.67A66.67,66.67,0,0,0,236.14,0ZM197.6,144.79c-24.81,6.51-44.21,22-53.13,55.21H327.81c-8.92-33.2-28.32-48.7-53.13-55.21a81.86,81.86,0,0,1-77.08,0Z"/></g></g></svg>