<svg id="Layer_1" data-name="Layer 1" xmlns="http://www.w3.org/2000/svg" viewBox="0 0 200 200"><defs><style>.cls-1{fill:none;}</style></defs><title>gc-icon</title><rect class="cls-1" width="200" height="200"/><path d="M190.05,133.62c-.78-.38-29.8-14.67-35-16.53a20.24,20.24,0,0,0-6.76-1.49c-3.92,0-7.21,2-9.78,5.79-2.9,4.31-11.68,14.57-14.39,17.64-.35.4-.84.88-1.13.88s-4.75-1.85-6.11-2.44c-31.14-13.52-54.77-46-58-51.53a3.56,3.56,0,0,1-.49-1.15,9.44,9.44,0,0,1,1.7-2c1.58-1.56,3.3-3.63,4.95-5.62.79-1,1.58-1.89,2.35-2.78a31.32,31.32,0,0,0,4.71-7.49l.65-1.31a13.53,13.53,0,0,0-.39-12.74c-.69-1.37-12.94-30.95-14.25-34.06-3.13-7.5-7.27-11-13-11-.54,0,0,0-2.24.09C40.15,8,25.3,10,18.74,14.09,11.78,18.48,0,32.47,0,57.07c0,22.15,14.05,43.06,20.09,51,.15.2.42.6.82,1.19C44,143,72.82,168,102,179.68c28.11,11.23,41.42,12.53,49,12.53h0a76.92,76.92,0,0,0,8-.47l1.42-.14c9.71-.86,31.06-11.92,35.91-25.41,3.82-10.62,4.83-22.23,2.29-26.44C196.86,136.88,193.85,135.44,190.05,133.62Z"/><rect class="cls-1" width="200" height="200"/></svg>