<svg id="Layer_1" data-name="Layer 1" xmlns="http://www.w3.org/2000/svg" viewBox="0 0 200 200"><defs><style>.cls-1{fill:none;}</style></defs><title>gc-icon</title><rect class="cls-1" width="200" height="200"/><path d="M168.58,36c-18.54-13.55-42.9-21-68.58-21S50,22.4,31.42,36C11.16,50.75,0,71,0,92.89S11.16,135,31.42,149.83a101,101,0,0,0,15.49,9.26L45,174.87a9.08,9.08,0,0,0,14.35,8.46l19.59-14.22A130.11,130.11,0,0,0,100,170.83c25.68,0,50-7.46,68.58-21C188.84,135,200,114.8,200,92.89S188.84,50.75,168.58,36ZM49.4,111.78a19.34,19.34,0,1,1,9.28-16.52A19.25,19.25,0,0,1,49.4,111.78Zm60.69,0a19.36,19.36,0,1,1,9.27-16.52A19.28,19.28,0,0,1,110.09,111.78Zm60.68,0a19.34,19.34,0,1,1,9.28-16.52A19.24,19.24,0,0,1,170.77,111.78Z"/></svg>