<svg id="Layer_2" data-name="Layer 2" xmlns="http://www.w3.org/2000/svg" viewBox="0 0 1058 396"><defs><style>.cls-1{fill:#f8f8f9;}.cls-2{fill:none;}</style></defs><title>logo-gocloud</title><path class="cls-1" d="M268.5,122.5h39s-22-83-128-83-139,95-139,143,18,103,70,132,121,23,158-21l12,32h27v-149h-130v29h92s-5,61-60,88-119-12-125-86,27-130,78-137S252.5,81.5,268.5,122.5Z"/><path class="cls-1" d="M453.5,43.5v50s-68,12-76,81c0,0-11,83,76,104v49s-122-10-129-142C324.5,185.5,318.5,69.5,453.5,43.5Z"/><path class="cls-1" d="M760.5,254.5a51,51,0,1,0,51,51A51,51,0,0,0,760.5,254.5Zm-.25,84.5a33.25,33.25,0,1,1,33.25-33.25A33.25,33.25,0,0,1,760.25,339Z"/><path class="cls-1" d="M619.8,322.8a33.26,33.26,0,1,1-.82-35.39l13.61-12.11a51,51,0,1,0,0,60.34Z"/><path class="cls-1" d="M588,237.82a67.38,67.38,0,0,1,11.35,1l.17-.29s31-61-15-134c0,0-34-50-91-58v51s36,8,56,49,2,113-56,129v52s11.68-1.92,28.59-10.69a67.91,67.91,0,0,1-1.09-12A67,67,0,0,1,588,237.82Z"/><polygon class="cls-1" points="708 352.5 644.5 352.5 644.5 258.5 660.5 258.5 660.5 336.5 708 336.5 708 352.5"/><path class="cls-1" d="M895,258v53s2,26-25,26-25-26-25-26V258H827v54c0,45,43,44,43,44s43,1,43-44V258Z"/><path class="cls-1" d="M966,258H929v96h33s52,2,52-45S981,258,966,258Zm-.67,81H946.5V272.82h21.11c8.56,0,27.39,2.76,27.39,35.15S965.33,339,965.33,339Z"/><rect class="cls-2" width="1058" height="396"/></svg>