<svg id="Capa_1" data-name="Capa 1" xmlns="http://www.w3.org/2000/svg" viewBox="0 0 725.18 1011.41"><defs><style>.cls-1{opacity:0.25;}.cls-2{fill:#bcbcbc;}</style></defs><title>sms-loginbg</title><g class="cls-1"><path class="cls-2" d="M530.21,100.38A15.75,15.75,0,0,0,545.9,84.69v-69A15.75,15.75,0,0,0,530.21,0H283.86a15.75,15.75,0,0,0-15.69,15.69V116.11l20.24-15.73Z"/><path class="cls-2" d="M650.64,147.91H404.29A15.75,15.75,0,0,0,388.6,163.6v26.64a71.29,71.29,0,0,0-10.82-.83H71.22A71.29,71.29,0,0,0,0,260.63V940.19a71.29,71.29,0,0,0,71.22,71.22H377.78A71.29,71.29,0,0,0,449,940.19v-160H645.7l20.24,15.7V695.52a15.75,15.75,0,0,0-15.69-15.69H449V632.74h81.21a15.75,15.75,0,0,0,15.69-15.69v-40a15.75,15.75,0,0,0-15.69-15.69H449V513.91H646.09l20.24,15.67V429.16a15.74,15.74,0,0,0-15.69-15.7H449V366.74h81.6a15.74,15.74,0,0,0,15.7-15.69v-69a15.74,15.74,0,0,0-15.7-15.69H449v-5.73a71,71,0,0,0-13.28-41.34H646.09L666.33,235V163.6A15.75,15.75,0,0,0,650.64,147.91Zm-374.14,63a6,6,0,1,1-6,6A6,6,0,0,1,276.5,210.91Zm-104,0h77a6,6,0,0,1,0,12h-77a6,6,0,0,1,0-12ZM288.8,366.74H422v46.72H404.29a15.74,15.74,0,0,0-15.69,15.7v69a15.74,15.74,0,0,0,15.69,15.75H422v47.45H283.86a15.75,15.75,0,0,0-15.69,15.69v71.39l20.24-15.7H422v47.09H403.9a15.74,15.74,0,0,0-15.7,15.69v69a15.74,15.74,0,0,0,15.7,15.69H422v160a44.27,44.27,0,0,1-44.22,44.22H71.22A44.27,44.27,0,0,1,27,940.19V260.63a44.27,44.27,0,0,1,44.22-44.22h4.49A39.54,39.54,0,0,0,113,242.91H336a39.54,39.54,0,0,0,37.29-26.5h4.49A44.27,44.27,0,0,1,422,260.63v5.73H284.25a15.75,15.75,0,0,0-15.69,15.69V382.47Z"/><circle class="cls-2" cx="232.47" cy="115.72" r="21.97"/><circle class="cls-2" cx="232.47" cy="382.48" r="21.97"/><circle class="cls-2" cx="232.49" cy="648.43" r="21.97" transform="translate(-100.89 45.63) rotate(-9.22)"/><circle class="cls-2" cx="703.21" cy="234.98" r="21.97"/><circle class="cls-2" cx="703.21" cy="529.98" r="21.97"/><circle class="cls-2" cx="703.21" cy="795.95" r="21.97"/></g></svg>